<svg xmlns="http://www.w3.org/2000/svg" viewBox="0 0 330 330">
  <path fill="#231F20" d="M165 0C73.874 0 0 73.874 0 165c0 59.236 31.223 111.173 78.102 140.275l.292.183c3.155 1.95 6.38 3.793 9.67 5.53l.407.215c3.29 1.726 6.643 3.342 10.058 4.848l.386.17c3.446 1.508 6.953 2.903 10.517 4.178l.23.08C126.957 326.638 145.584 330 165 330c91.127 0 165-73.873 165-165C330 73.874 256.127 0 165 0zm111.723 276.723C246.88 306.565 207.203 323 165 323c-17.234 0-34.046-2.743-49.94-8.02v-89.704c16.648 14.542 35.514 21.808 56.6 21.808 24.415 0 44.635-7.69 60.666-23.08 16.153-15.494 24.23-34.864 24.23-58.105 0-23.773-8.138-43.46-24.414-59.06-16.03-15.706-36.438-23.56-61.222-23.56-20.84 0-39.46 7.06-55.86 21.173V87.578H73.445v206.228c-7.114-5.08-13.862-10.778-20.167-17.083C23.435 246.88 7 207.203 7 165S23.435 83.12 53.277 53.277 122.797 7 165 7s81.88 16.435 111.723 46.277C306.565 83.12 323 122.797 323 165s-16.435 81.88-46.277 111.723zM112.657 165.26c0-14.853 4.745-26.846 14.24-35.975 9.495-9.126 21.887-13.69 37.18-13.69 14.426 0 26.386 4.723 35.882 14.167 9.367 9.342 14.056 21.44 14.056 36.295 0 14.01-4.81 25.686-14.427 35.02-9.374 9.343-21.272 14.014-35.698 14.014-15.292 0-27.624-4.618-36.994-13.85-9.496-9.445-14.24-21.438-14.24-35.98z"/>
</svg>
